<svg width="500" height="248" viewBox="0 0 500 248" fill="none" xmlns="http://www.w3.org/2000/svg">
<path opacity="0.3" d="M172.745 177.984C156.845 198.014 127.413 199.767 109.191 181.758C103.578 176.211 98.2177 170.293 93.1451 164.008C84.642 153.473 77.321 142.371 71.1649 130.863C59.8842 109.774 67.8047 83.8512 88.8948 72.5741C113.511 59.4116 140.081 51.4267 166.899 48.5868C196.071 45.4976 218.72 71.6882 211.44 100.034C204.261 127.986 191.293 154.618 172.745 177.984Z" fill="white"/>
<path opacity="0.7" d="M140.505 195.484C124.605 215.514 95.1732 217.268 76.9507 199.259C71.3374 193.711 65.9775 187.793 60.9049 181.508C52.4018 170.973 45.0808 159.872 38.9247 148.363C27.644 127.275 35.5644 101.352 56.6546 90.0746C81.2706 76.912 107.841 68.9271 134.659 66.0872C163.831 62.9981 186.48 89.1887 179.2 117.535C172.021 145.487 159.053 172.118 140.505 195.484Z" fill="white"/>
<path d="M257.957 70.661H265.081V92.1752H292.16V70.661H299.284V122.727H292.16V98.3778H265.081V122.727H257.957V70.661Z" fill="#FFFAFA"/>
<path d="M334.444 94.5145C337.752 94.5145 340.363 93.8528 342.277 92.5296C344.215 91.2064 345.183 88.8199 345.183 85.37C345.183 81.6603 343.836 79.132 341.143 77.7851C339.701 77.0763 337.776 76.7218 335.366 76.7218H318.14V94.5145H334.444ZM311.087 70.661H335.188C339.158 70.661 342.431 71.2399 345.006 72.3977C349.897 74.6189 352.343 78.7185 352.343 84.6966C352.343 87.8156 351.693 90.3676 350.394 92.3524C349.118 94.3372 347.322 95.9322 345.006 97.1373C347.038 97.9643 348.562 99.0512 349.578 100.398C350.618 101.745 351.197 103.931 351.315 106.955L351.563 113.937C351.634 115.922 351.799 117.399 352.059 118.368C352.485 120.022 353.241 121.085 354.328 121.558V122.727H345.68C345.443 122.278 345.254 121.7 345.112 120.991C344.971 120.282 344.853 118.911 344.758 116.879L344.333 108.196C344.167 104.793 342.903 102.513 340.54 101.355C339.193 100.717 337.079 100.398 334.196 100.398H318.14V122.727H311.087V70.661Z" fill="#FFFAFA"/>
<path d="M259.375 130.909H266.499V182.976H259.375V130.909Z" fill="#FFFAFA"/>
<path d="M277.132 145.016H283.193V150.403C284.989 148.182 286.891 146.587 288.899 145.618C290.908 144.649 293.141 144.165 295.598 144.165C300.985 144.165 304.624 146.044 306.515 149.801C307.554 151.856 308.074 154.798 308.074 158.626V182.976H301.588V159.051C301.588 156.736 301.245 154.869 300.56 153.451C299.426 151.088 297.37 149.907 294.393 149.907C292.881 149.907 291.64 150.06 290.671 150.368C288.923 150.887 287.387 151.927 286.064 153.487C285 154.739 284.303 156.039 283.973 157.385C283.665 158.709 283.512 160.611 283.512 163.092V182.976H277.132V145.016Z" fill="#FFFAFA"/>
<path d="M321.33 171.067C321.519 173.193 322.051 174.824 322.925 175.958C324.532 178.014 327.32 179.041 331.29 179.041C333.652 179.041 335.732 178.533 337.528 177.517C339.323 176.478 340.221 174.883 340.221 172.732C340.221 171.102 339.501 169.862 338.059 169.011C337.138 168.491 335.318 167.889 332.601 167.203L327.533 165.927C324.295 165.124 321.909 164.226 320.373 163.234C317.632 161.509 316.261 159.122 316.261 156.074C316.261 152.482 317.549 149.576 320.125 147.355C322.724 145.134 326.209 144.023 330.581 144.023C336.299 144.023 340.422 145.701 342.95 149.056C344.534 151.183 345.301 153.475 345.254 155.932H339.229C339.111 154.491 338.603 153.18 337.705 151.998C336.24 150.32 333.7 149.482 330.084 149.482C327.674 149.482 325.843 149.942 324.591 150.864C323.362 151.785 322.748 153.002 322.748 154.515C322.748 156.169 323.563 157.492 325.193 158.484C326.138 159.075 327.533 159.595 329.376 160.044L333.593 161.072C338.177 162.182 341.249 163.257 342.809 164.297C345.29 165.927 346.53 168.491 346.53 171.988C346.53 175.367 345.242 178.285 342.667 180.743C340.115 183.2 336.216 184.429 330.971 184.429C325.323 184.429 321.318 183.153 318.955 180.601C316.616 178.025 315.364 174.847 315.198 171.067H321.33Z" fill="#FFFAFA"/>
<path d="M353.832 145.193H360.318V182.976H353.832V145.193ZM353.832 130.909H360.318V138.14H353.832V130.909Z" fill="#FFFAFA"/>
<path d="M383.391 144.342C386.369 144.342 388.968 145.075 391.189 146.54C392.394 147.367 393.623 148.572 394.875 150.155V145.37H400.759V179.892C400.759 184.712 400.05 188.517 398.632 191.305C395.986 196.456 390.988 199.032 383.639 199.032C379.552 199.032 376.114 198.11 373.325 196.267C370.537 194.447 368.978 191.588 368.647 187.69H375.133C375.44 189.391 376.055 190.702 376.976 191.624C378.417 193.042 380.686 193.75 383.781 193.75C388.672 193.75 391.874 192.026 393.386 188.576C394.284 186.544 394.698 182.917 394.627 177.695C393.351 179.632 391.815 181.073 390.019 182.019C388.223 182.964 385.849 183.436 382.895 183.436C378.784 183.436 375.18 181.983 372.085 179.077C369.013 176.147 367.477 171.315 367.477 164.58C367.477 158.224 369.025 153.262 372.12 149.694C375.239 146.126 378.996 144.342 383.391 144.342ZM394.875 163.836C394.875 159.134 393.906 155.649 391.969 153.38C390.031 151.112 387.562 149.978 384.561 149.978C380.072 149.978 377 152.081 375.346 156.287C374.471 158.531 374.034 161.473 374.034 165.112C374.034 169.389 374.897 172.65 376.622 174.895C378.37 177.116 380.709 178.226 383.639 178.226C388.223 178.226 391.449 176.159 393.316 172.024C394.355 169.684 394.875 166.955 394.875 163.836Z" fill="#FFFAFA"/>
<path d="M410.399 130.732H416.779V150.155C418.291 148.241 419.65 146.894 420.855 146.114C422.911 144.768 425.475 144.094 428.546 144.094C434.052 144.094 437.785 146.02 439.746 149.871C440.81 151.974 441.341 154.893 441.341 158.626V182.976H434.784V159.051C434.784 156.263 434.43 154.219 433.721 152.92C432.563 150.84 430.389 149.801 427.199 149.801C424.553 149.801 422.155 150.71 420.004 152.53C417.854 154.349 416.779 157.787 416.779 162.844V182.976H410.399V130.732Z" fill="#FFFAFA"/>
<path d="M452.081 134.418H458.531V145.016H464.592V150.226H458.531V175.001C458.531 176.324 458.98 177.21 459.878 177.659C460.375 177.919 461.202 178.049 462.359 178.049C462.667 178.049 462.997 178.049 463.352 178.049C463.706 178.025 464.12 177.99 464.592 177.943V182.976C463.86 183.188 463.092 183.342 462.288 183.436C461.509 183.531 460.658 183.578 459.737 183.578C456.759 183.578 454.739 182.822 453.676 181.31C452.612 179.774 452.081 177.789 452.081 175.355V150.226H446.941V145.016H452.081V134.418Z" fill="#FFFAFA"/>
<path d="M474.8 171.067C474.989 173.193 475.521 174.824 476.395 175.958C478.002 178.014 480.79 179.041 484.76 179.041C487.123 179.041 489.202 178.533 490.998 177.517C492.793 176.478 493.691 174.883 493.691 172.732C493.691 171.102 492.971 169.862 491.529 169.011C490.608 168.491 488.788 167.889 486.071 167.203L481.003 165.927C477.765 165.124 475.379 164.226 473.843 163.234C471.102 161.509 469.732 159.122 469.732 156.074C469.732 152.482 471.019 149.576 473.595 147.355C476.194 145.134 479.679 144.023 484.051 144.023C489.769 144.023 493.892 145.701 496.421 149.056C498.004 151.183 498.772 153.475 498.724 155.932H492.699C492.581 154.491 492.073 153.18 491.175 151.998C489.71 150.32 487.17 149.482 483.555 149.482C481.144 149.482 479.313 149.942 478.061 150.864C476.832 151.785 476.218 153.002 476.218 154.515C476.218 156.169 477.033 157.492 478.663 158.484C479.609 159.075 481.003 159.595 482.846 160.044L487.063 161.072C491.647 162.182 494.719 163.257 496.279 164.297C498.76 165.927 500 168.491 500 171.988C500 175.367 498.713 178.285 496.137 180.743C493.585 183.2 489.686 184.429 484.441 184.429C478.793 184.429 474.788 183.153 472.425 180.601C470.086 178.025 468.834 174.847 468.668 171.067H474.8Z" fill="#FFFAFA"/>
</svg>
