<svg width="2709" height="479" viewBox="0 0 2709 479" fill="none" xmlns="http://www.w3.org/2000/svg">
<path d="M813.594 59.6599C813.594 55.6443 814.621 52.4892 816.673 50.1946C818.726 47.7088 821.805 46.4659 825.91 46.4659H1006.72C1025.94 46.4659 1043.94 50.1946 1060.74 57.6521C1077.53 64.9183 1092.18 74.8617 1104.68 87.4821C1117.18 100.102 1126.98 114.922 1134.07 131.94C1141.34 148.767 1144.98 166.742 1144.98 185.863C1144.98 198.866 1143.21 211.295 1139.67 223.151C1136.31 234.815 1131.55 245.81 1125.39 256.136C1119.23 266.27 1111.86 275.545 1103.28 283.958C1094.88 292.18 1085.65 299.255 1075.57 305.183L1147.5 444.007C1148.81 446.684 1150.49 449.839 1152.54 453.472C1154.59 457.106 1155.62 460.261 1155.62 462.938C1155.62 465.997 1154.59 468.387 1152.54 470.108C1150.67 471.638 1148.06 472.403 1144.7 472.403H1048.7C1045.53 472.403 1042.64 471.447 1040.02 469.535C1037.6 467.623 1036.01 465.041 1035.27 461.79L967.254 330.711H921.912V460.069C921.912 468.292 917.62 472.403 909.037 472.403H825.91C822.178 472.403 819.192 471.447 816.953 469.535C814.714 467.431 813.594 464.276 813.594 460.069V59.6599ZM1032.75 187.011C1032.75 181.274 1031.72 175.538 1029.67 169.801C1027.62 164.065 1024.72 158.806 1020.99 154.026C1017.26 149.245 1012.78 145.23 1007.56 141.979C1002.33 138.728 996.549 136.625 990.205 135.669C984.98 135.286 980.035 135 975.37 134.808C970.892 134.426 965.948 134.235 960.536 134.235H921.912V239.5H973.411C976.77 239.5 979.755 239.404 982.368 239.213C984.98 239.022 987.872 238.735 991.044 238.353C997.575 237.588 1003.45 235.676 1008.68 232.616C1013.9 229.365 1018.29 225.445 1021.83 220.856C1025.38 216.076 1028.08 210.817 1029.95 205.081C1031.81 199.153 1032.75 193.13 1032.75 187.011Z" fill="white"/>
<path d="M1473.82 428.805C1457.4 444.294 1438.93 456.436 1418.4 465.232C1397.88 473.837 1376.14 478.139 1353.19 478.139C1327.63 478.139 1303.46 473.359 1280.7 463.798C1257.93 454.237 1237.97 441.043 1220.8 424.216C1203.64 407.198 1190.01 387.216 1179.94 364.269C1169.86 341.323 1164.82 316.369 1164.82 289.408C1164.82 272.581 1166.78 256.327 1170.7 240.647C1174.81 224.776 1180.5 209.957 1187.78 196.189C1195.24 182.422 1204.2 169.801 1214.65 158.328C1225.28 146.664 1237.13 136.721 1250.19 128.498C1263.25 120.276 1277.43 113.87 1292.73 109.281C1308.03 104.692 1324.18 102.397 1341.16 102.397C1356.64 102.397 1371.66 104.5 1386.22 108.707C1400.77 112.914 1414.39 118.842 1427.08 126.49C1439.96 134.139 1451.71 143.318 1462.35 154.026C1472.98 164.734 1482.13 176.494 1489.78 189.305C1497.43 201.926 1503.3 215.502 1507.41 230.035C1511.7 244.376 1513.85 259.195 1513.85 274.493C1513.85 284.436 1513.66 292.563 1513.29 298.873C1513.1 305.183 1511.7 310.25 1509.09 314.075C1506.48 317.708 1502.09 320.289 1495.93 321.819C1489.96 323.158 1481.1 323.827 1469.34 323.827H1267.82C1269.69 336.065 1273.42 346.295 1279.02 354.517C1284.8 362.74 1291.43 369.337 1298.89 374.308C1306.36 379.089 1314.29 382.531 1322.68 384.634C1331.08 386.737 1339.01 387.789 1346.47 387.789C1353.19 387.789 1360.09 387.12 1367.18 385.781C1374.28 384.252 1381.09 382.34 1387.62 380.045C1394.33 377.559 1400.4 374.786 1405.81 371.727C1411.41 368.476 1415.89 365.13 1419.24 361.688C1422.23 359.202 1424.75 357.386 1426.8 356.238C1429.04 354.9 1431.37 354.231 1433.8 354.231C1436.22 354.231 1438.65 355.091 1441.08 356.812C1443.69 358.533 1446.58 361.019 1449.75 364.269L1479.42 398.689C1481.47 401.174 1482.78 403.469 1483.34 405.572C1483.9 407.485 1484.18 409.492 1484.18 411.596C1484.18 415.42 1483.15 418.766 1481.1 421.635C1479.05 424.312 1476.62 426.702 1473.82 428.805ZM1339.2 189.879C1331.92 189.879 1324.83 191.409 1317.92 194.468C1311.21 197.337 1304.86 201.256 1298.89 206.228C1292.92 211.2 1287.51 216.841 1282.66 223.151C1277.99 229.461 1274.17 235.867 1271.18 242.368H1414.21C1410.29 234.911 1406 228.027 1401.33 221.717C1396.85 215.407 1391.63 209.861 1385.66 205.081C1379.87 200.3 1373.16 196.572 1365.51 193.895C1358.04 191.218 1349.27 189.879 1339.2 189.879Z" fill="white"/>
<path d="M1938.16 451.178C1938.16 454.429 1937.6 457.584 1936.48 460.643C1935.36 463.511 1933.5 465.806 1930.89 467.527C1928.83 469.63 1926.41 470.969 1923.61 471.542C1920.81 472.116 1918.38 472.403 1916.33 472.403H1861.19C1857.28 472.403 1854.1 471.925 1851.68 470.969C1849.25 469.822 1847.29 468.292 1845.8 466.38C1844.31 464.467 1843 462.173 1841.88 459.496C1840.95 456.627 1839.92 453.568 1838.8 450.317L1835.16 437.41C1830.13 442.573 1824.34 447.64 1817.81 452.612C1811.47 457.584 1804.38 462.077 1796.54 466.093C1788.89 469.917 1780.59 472.977 1771.63 475.271C1762.86 477.757 1753.72 479 1744.2 479C1727.22 479 1710.89 476.801 1695.22 472.403C1679.73 468.005 1665.18 461.79 1651.56 453.759C1638.12 445.537 1625.9 435.785 1614.89 424.503C1603.88 413.03 1594.37 400.314 1586.34 386.355C1578.51 372.396 1572.44 357.386 1568.15 341.323C1563.86 325.07 1561.71 308.147 1561.71 290.555C1561.71 263.976 1566.47 239.309 1575.99 216.554C1585.5 193.608 1598.47 173.721 1614.89 156.894C1631.31 139.876 1650.62 126.586 1672.83 117.025C1695.03 107.273 1718.82 102.397 1744.2 102.397C1755.77 102.397 1766.5 103.736 1776.39 106.413C1786.46 109.09 1795.61 112.723 1803.82 117.312C1812.21 121.901 1819.77 127.446 1826.49 133.948C1833.2 140.258 1839.08 147.142 1844.12 154.599L1852.24 128.498C1854.1 123.718 1855.6 119.893 1856.72 117.025C1858.02 113.966 1859.33 111.767 1860.63 110.428C1862.13 108.898 1863.9 107.942 1865.95 107.56C1868 106.986 1870.9 106.699 1874.63 106.699H1916.33C1918.38 106.699 1920.81 106.986 1923.61 107.56C1926.41 108.134 1928.83 109.472 1930.89 111.575C1933.5 113.679 1935.36 116.069 1936.48 118.746C1937.6 121.423 1938.16 124.483 1938.16 127.925V451.178ZM1662.47 290.555C1662.47 303.175 1664.34 315.031 1668.07 326.122C1671.99 337.021 1677.49 346.486 1684.58 354.517C1691.67 362.548 1700.16 368.954 1710.05 373.735C1720.13 378.324 1731.23 380.619 1743.36 380.619C1755.86 380.619 1767.43 378.324 1778.07 373.735C1788.89 368.954 1798.22 362.548 1806.06 354.517C1814.08 346.486 1820.33 337.021 1824.81 326.122C1829.29 315.031 1831.53 303.175 1831.53 290.555C1831.53 278.317 1829.29 266.653 1824.81 255.562C1820.33 244.472 1814.08 234.72 1806.06 226.306C1798.22 217.892 1788.89 211.295 1778.07 206.515C1767.43 201.543 1755.86 199.057 1743.36 199.057C1731.23 199.057 1720.13 201.543 1710.05 206.515C1700.16 211.295 1691.67 217.892 1684.58 226.306C1677.49 234.72 1671.99 244.472 1668.07 255.562C1664.34 266.653 1662.47 278.317 1662.47 290.555Z" fill="white"/>
<path d="M2005.3 21.7988C2005.3 15.6798 2006.79 10.517 2009.78 6.31017C2012.77 2.10339 2017.9 0 2025.17 0H2093.75C2095.61 0 2097.57 0.573662 2099.62 1.72098C2101.68 2.67706 2103.54 4.11119 2105.22 6.02336C2107.09 7.93553 2108.58 10.2301 2109.7 12.9072C2111.01 15.5842 2111.66 18.5481 2111.66 21.7988V450.317C2111.66 457.584 2109.61 463.129 2105.5 466.953C2101.58 470.586 2096.45 472.403 2090.11 472.403H2025.17C2017.9 472.403 2012.77 470.586 2009.78 466.953C2006.79 463.129 2005.3 457.584 2005.3 450.317V21.7988Z" fill="white"/>
<path d="M2178.59 21.7988C2178.59 15.6798 2180.09 10.517 2183.07 6.31017C2186.06 2.10339 2191.19 0 2198.46 0H2267.04C2268.9 0 2270.86 0.573662 2272.92 1.72098C2274.97 2.67706 2276.83 4.11119 2278.51 6.02336C2280.38 7.93553 2281.87 10.2301 2282.99 12.9072C2284.3 15.5842 2284.95 18.5481 2284.95 21.7988V450.317C2284.95 457.584 2282.9 463.129 2278.79 466.953C2274.87 470.586 2269.74 472.403 2263.4 472.403H2198.46C2191.19 472.403 2186.06 470.586 2183.07 466.953C2180.09 463.129 2178.59 457.584 2178.59 450.317V21.7988Z" fill="white"/>
<path d="M2340.97 290.555C2340.97 272.963 2343.11 256.04 2347.41 239.787C2351.88 223.533 2358.04 208.523 2365.88 194.755C2373.9 180.796 2383.42 168.176 2394.43 156.894C2405.62 145.421 2418.03 135.669 2431.65 127.638C2445.27 119.607 2459.92 113.392 2475.59 108.994C2491.45 104.596 2507.97 102.397 2525.13 102.397C2550.51 102.397 2574.3 107.273 2596.51 117.025C2618.9 126.586 2638.3 139.876 2654.72 156.894C2671.33 173.721 2684.39 193.608 2693.91 216.554C2703.61 239.309 2708.46 263.976 2708.46 290.555C2708.46 308.147 2706.22 325.07 2701.74 341.323C2697.45 357.386 2691.3 372.396 2683.27 386.355C2675.44 400.314 2665.92 413.03 2654.72 424.503C2643.71 435.785 2631.4 445.537 2617.78 453.759C2604.16 461.79 2589.51 468.005 2573.84 472.403C2558.35 476.801 2542.11 479 2525.13 479C2507.97 479 2491.45 476.801 2475.59 472.403C2459.92 468.005 2445.27 461.79 2431.65 453.759C2418.03 445.537 2405.62 435.785 2394.43 424.503C2383.42 413.03 2373.9 400.314 2365.88 386.355C2358.04 372.396 2351.88 357.386 2347.41 341.323C2343.11 325.07 2340.97 308.147 2340.97 290.555ZM2443.13 290.555C2443.13 303.175 2444.99 315.031 2448.72 326.122C2452.64 337.021 2458.05 346.486 2464.96 354.517C2472.05 362.548 2480.54 368.954 2490.43 373.735C2500.5 378.324 2511.79 380.619 2524.3 380.619C2536.42 380.619 2547.34 378.324 2557.04 373.735C2566.93 368.954 2575.23 362.548 2581.95 354.517C2588.86 346.486 2594.08 337.021 2597.63 326.122C2601.36 315.031 2603.22 303.175 2603.22 290.555C2603.22 278.317 2601.36 266.653 2597.63 255.562C2594.08 244.472 2588.86 234.72 2581.95 226.306C2575.23 217.892 2566.93 211.295 2557.04 206.515C2547.34 201.543 2536.42 199.057 2524.3 199.057C2511.79 199.057 2500.5 201.543 2490.43 206.515C2480.54 211.295 2472.05 217.892 2464.96 226.306C2458.05 234.72 2452.64 244.472 2448.72 255.562C2444.99 266.653 2443.13 278.317 2443.13 290.555Z" fill="white"/>
<path fill-rule="evenodd" clip-rule="evenodd" d="M268.84 90.0293C320.686 31.6286 411.903 31.6285 463.749 90.0293L717.49 375.853C739.444 400.582 737.194 438.426 712.464 460.379C687.735 482.333 649.891 480.083 627.937 455.353L374.196 169.53C369.993 164.795 362.597 164.795 358.393 169.53L104.652 455.353C82.6984 480.083 44.8545 482.333 20.1252 460.379C-4.60405 438.426 -6.85423 400.582 15.0993 375.853L268.84 90.0293Z" fill="white"/>
<path fill-rule="evenodd" clip-rule="evenodd" d="M314.099 297.554C342.058 266.702 390.532 266.702 418.491 297.554L499.752 387.221C515.427 404.517 514.112 431.246 496.816 446.92C479.52 462.595 452.792 461.281 437.117 443.984L366.295 365.836L295.473 443.984C279.798 461.281 253.07 462.595 235.774 446.92C218.477 431.246 217.163 404.517 232.838 387.221L314.099 297.554Z" fill="white"/>
</svg>
