<svg width="130" height="41" viewBox="0 0 130 41" fill="none" xmlns="http://www.w3.org/2000/svg">
<g clip-path="url(#clip0)">
<path d="M52.6484 26.8743C51.9146 27.3635 51.0891 27.7304 50.2331 27.9138C48.9184 28.2195 47.6037 28.3724 46.2585 28.3418C44.6992 28.3418 43.1705 28.2195 41.6418 27.9444C40.1743 27.6692 39.1348 27.3635 38.4927 27.0577C37.8507 26.7214 37.5449 26.4157 37.5449 26.1099C37.5449 24.9787 37.6978 23.8475 38.0035 22.7468C38.3093 21.585 38.6762 21.0041 39.1042 21.0041C39.1959 21.0041 39.9908 21.2487 41.4889 21.7685C43.0176 22.2882 44.1489 22.5328 44.9132 22.5328C45.6776 22.5328 46.1667 22.4411 46.4113 22.2882C46.6254 22.1353 46.7782 21.8602 46.7476 21.585C46.7476 21.2793 46.5336 21.0041 46.1056 20.7595C45.6164 20.4844 45.0661 20.2703 44.5158 20.1175C43.8126 19.9034 43.1094 19.6589 42.4367 19.3225C41.7335 18.9862 41.0303 18.6193 40.3883 18.1607C39.7157 17.7021 39.1653 17.0907 38.7984 16.3569C38.4316 15.5925 38.2175 14.6753 38.2175 13.7581C38.2175 9.47776 40.7552 7.33759 45.861 7.33759C47.512 7.30702 49.163 7.42932 50.7834 7.70448C52.1592 7.94907 53.1376 8.22424 53.7185 8.4994C54.2994 8.77456 54.5745 9.0803 54.5745 9.38604C54.544 10.4867 54.2994 11.5874 53.8713 12.5963C53.4127 13.7581 52.9541 14.339 52.4955 14.339C52.2509 14.2779 51.9758 14.1861 51.7618 14.0944C50.5082 13.5441 49.4381 13.2689 48.6126 13.2689C47.7872 13.2689 47.2063 13.3606 46.9005 13.5135C46.6253 13.6358 46.4419 13.911 46.4419 14.2167C46.4419 14.553 46.6559 14.7976 47.084 15.0116C47.5731 15.2562 48.1235 15.4397 48.6432 15.562C49.3464 15.7454 50.019 15.99 50.6917 16.3263C51.4254 16.6626 52.0981 17.0601 52.7401 17.5187C53.4127 18.0079 53.9631 18.6805 54.33 19.4448C54.758 20.3315 54.972 21.3404 54.972 22.3188C54.972 23.4194 54.6663 24.5201 54.0548 25.4373C53.6879 25.9571 53.2293 26.4768 52.6484 26.8743Z" fill="white"/>
<path d="M64.1133 21.585C64.1133 22.8385 64.7248 23.45 65.8866 23.45C66.8344 23.3889 67.7516 23.1443 68.6077 22.7468C69.7084 22.2882 70.3198 22.0436 70.3504 22.0436C70.7173 22.0436 71.2065 22.5939 71.7874 23.6946C72.3683 24.7953 72.674 25.5902 72.674 26.1099C72.674 26.8743 71.9097 27.4246 70.381 27.8221C68.9134 28.189 67.3847 28.403 65.8866 28.403C64.6637 28.4335 63.4101 28.3113 62.1872 28.0667C61.3311 27.8832 60.5362 27.6081 59.7719 27.18C58.6406 26.5074 57.6928 25.5596 57.0814 24.3978C56.8368 23.9086 56.6533 23.3583 56.531 22.8385C56.3476 21.9825 56.2559 21.0958 56.2559 20.2092C56.2559 16.7238 57.1731 14.3084 58.9769 12.9938C59.8636 12.3211 60.9031 11.8319 62.0037 11.5874C63.2878 11.3122 64.6331 11.1593 65.9478 11.1899C70.809 11.1899 73.2243 12.8715 73.2243 16.2652C73.2243 19.8729 70.5033 21.6462 65.0306 21.6462L64.1133 21.585ZM64.0522 17.3658V19.2614C64.6025 19.292 65.0917 19.0168 65.428 18.5888C65.7949 18.1302 65.9783 17.5493 65.9478 16.9684C65.9478 15.8065 65.642 15.2562 65.0611 15.2256C64.3885 15.2868 64.0522 15.99 64.0522 17.3658Z" fill="white"/>
<path d="M86.341 27.8221C86.0047 28.1585 85.2098 28.3113 83.9868 28.3113C82.9473 28.3419 81.9384 28.2502 80.9295 28.0667C80.104 27.8833 79.309 27.5775 78.6364 27.0884C77.23 26.1406 76.5268 24.1839 76.5268 21.2182V16.7544H75.0898C74.8758 16.7544 74.6924 16.5404 74.5395 16.0818C74.3561 15.5009 74.2949 14.8894 74.2949 14.2779C74.2949 13.5747 74.4172 12.9021 74.6618 12.2295C74.9064 11.6486 75.2121 11.3428 75.6096 11.3428H76.5268V7.85742C76.5268 7.24594 77.1077 6.78733 78.2695 6.42045C79.3702 6.05356 80.532 5.87012 81.6938 5.87012C83.4365 5.87012 84.3231 6.29815 84.3231 7.15422V11.3428H86.4633C86.9525 11.3428 87.2277 12.046 87.2277 13.5136C87.2582 14.3085 87.1359 15.0728 86.8914 15.8372C86.6773 16.4487 86.4022 16.7544 86.0353 16.7544H84.3231V22.0131C84.2926 22.4717 84.5677 22.9303 84.9958 23.1138C85.3627 23.2972 85.7601 23.4195 86.1576 23.4501C86.4633 23.4195 86.7385 23.6335 86.7691 23.9393C86.8608 24.4284 86.8914 24.9176 86.8914 25.4068C86.8608 26.6909 86.7079 27.5164 86.341 27.8221Z" fill="white"/>
<path d="M100.343 27.8221C100.007 28.1585 99.2117 28.3113 97.9888 28.3113C96.9493 28.3419 95.9403 28.2502 94.9314 28.0667C94.1059 27.8833 93.311 27.5775 92.6384 27.0884C91.232 26.1406 90.5288 24.1839 90.5288 21.2182V16.7544H89.0918C88.8778 16.7544 88.6943 16.5404 88.5415 16.0818C88.358 15.5009 88.2969 14.8894 88.2969 14.2779C88.2969 13.5747 88.4192 12.9021 88.6638 12.2295C88.9084 11.6486 89.2141 11.3428 89.6116 11.3428H90.5288V7.85742C90.5288 7.27651 91.1097 6.78733 92.2715 6.42045C93.3721 6.05356 94.5339 5.87012 95.6957 5.87012C97.4385 5.87012 98.3251 6.29815 98.3251 7.15422V11.3428H100.465C100.954 11.3428 101.23 12.046 101.23 13.5136C101.26 14.3085 101.138 15.0728 100.893 15.8372C100.679 16.4487 100.404 16.7544 100.037 16.7544H98.3251V22.0131C98.2945 22.4717 98.5697 22.9303 98.9977 23.1138C99.3646 23.2972 99.7621 23.4195 100.16 23.4501C100.465 23.4195 100.74 23.6335 100.771 23.9393C100.863 24.4284 100.893 24.9176 100.893 25.4068C100.863 26.6909 100.679 27.5164 100.343 27.8221Z" fill="white"/>
<path d="M110.861 6.94046V27.3944C110.861 27.6084 110.31 27.7613 109.21 27.9141C108.079 28.0364 106.947 28.0976 105.816 28.0976C105.052 28.1281 104.318 28.067 103.554 27.9447C103.217 27.853 103.064 27.6695 103.064 27.3944V7.46022C103.064 7.03219 103.615 6.63473 104.685 6.20669C105.816 5.80923 106.978 5.59521 108.201 5.59521C109.974 5.62579 110.861 6.05382 110.861 6.94046Z" fill="white"/>
<path d="M122.692 26.2324V24.5202H122.447C122.325 24.6425 122.172 24.7648 122.019 24.8871C121.591 25.1623 121.133 25.3457 120.674 25.4986C119.91 25.7432 119.115 25.8961 118.289 25.8655C117.494 25.8961 116.73 25.7432 115.996 25.4375C115.385 25.1929 114.834 24.826 114.437 24.3062C114.009 23.7559 113.703 23.1138 113.55 22.4106C113.183 21.1571 113 19.3838 113 17.1214V13.1468C113 12.7493 113.581 12.3518 114.712 11.9544C115.874 11.5569 117.066 11.3429 118.289 11.3735C119.971 11.3735 120.796 11.8015 120.796 12.6576V16.2653C120.796 20.1176 121.102 22.0132 121.714 22.0132C122.08 22.0132 122.264 21.7686 122.264 21.2488V13.1773C122.264 12.7799 122.875 12.3824 124.068 11.985C125.321 11.5875 126.636 11.3735 127.951 11.4041C129.326 11.4041 130.03 11.7709 130.03 12.5353V26.1712C130.03 30.4516 127.125 32.5917 121.316 32.5917C118.259 32.5917 116.18 32.286 115.079 31.7051C114.59 31.4299 114.345 31.1548 114.345 30.8796C114.345 30.421 114.529 29.6567 114.926 28.556C115.324 27.4553 115.66 26.9356 115.996 26.9356C116.271 26.9662 116.547 27.0273 116.791 27.119C117.953 27.4553 119.145 27.6693 120.338 27.6999C121.286 27.6999 121.928 27.6082 122.203 27.3942C122.57 27.0579 122.722 26.6298 122.692 26.2324Z" fill="white"/>
<path fill-rule="evenodd" clip-rule="evenodd" d="M0 16.7545C0 7.52117 7.52117 0 16.7545 0C26.0183 0 33.5395 7.52117 33.5089 16.7545C33.5089 26.9661 16.7545 40.5715 16.7545 40.5715C16.7545 40.5715 0 26.9967 0 16.7545ZM12.1378 27.8222C22.4412 27.8222 25.5597 22.5635 26.1712 18.8335C26.2935 18.222 26.3546 17.6411 26.3546 17.0296C26.3546 13.3608 24.245 10.0282 20.9125 8.46895C16.2041 6.23706 10.548 8.25494 8.31606 12.9939C6.08417 17.7328 8.10204 23.389 12.841 25.5903L11.2206 27.8222H11.5263H12.1378Z" fill="white"/>
</g>
<defs>
<clipPath id="clip0">
<path d="M0 0H130V40.5715H0V0Z" fill="white"/>
</clipPath>
</defs>
</svg>
